#File generated from solving marker data for model walk1.trc
name solved_motion
datacolumns 41
datarows 15
range 1.0000000000 1.1170000000
units unknown
enforce_loops no
enforce_constraints no
endheader

time	lower_torso_TX	lower_torso_TY	lower_torso_TZ	lower_torso_RX	lower_torso_RY	lower_torso_RZ	lumbar_roll	lumbar_yaw	lumbar_pitch	neck_roll	neck_yaw	neck_pitch	arm_add_r	arm_rot_r	arm_flex_r	elbow_flex_r	pro_sup_r	wrist_dev_r	wrist_flex_r	arm_add_l	arm_rot_l	arm_flex_l	elbow_flex_l	pro_sup_l	wrist_dev_l	wrist_flex_l	hip_add_r	hip_rot_r	hip_flex_r	knee_flex_r	ankle_flex_r	subt_angle_r	toe_angle_r	hip_add_l	hip_rot_l	hip_flex_l	knee_flex_l	ankle_flex_l	subt_angle_l	toe_angle_l	
1.0000000000	-0.6038207741	0.3074927425	0.6806898039	85.2057550078	-8.0632857665	-4.2573379937	2.2691436939	15.1575270373	-14.6381501449	0.0000000000	0.0000000000	0.0000000000	-36.5149633244	-9.9999999996	25.3443580501	0.0000000000	70.0000000000	0.0000000000	0.0000000000	-30.4227461172	10.0000000000	14.2354460391	0.0000000000	70.0000000000	0.0000000000	0.0000000000	-1.7409182417	6.5619544418	60.9112316909	110.8059891051	11.4230211497	19.8401413360	0.0000000000	1.7616032444	13.3153902723	49.8822234419	104.0263629884	30.0000000000	9.2552374251	-0.0610000000	
1.0080000000	-0.5971263514	0.3075000851	0.6812473720	85.3914092836	-7.2943529905	-4.5646672517	2.2687818007	14.0939922936	-14.3355876200	0.0000000000	0.0000000000	0.0000000000	-36.1209930070	-9.9999999996	24.6528474816	0.0000000000	70.0000000000	0.0000000000	0.0000000000	-30.5882338959	10.0000000000	15.2503586746	0.0000000000	70.0000000000	0.0000000000	0.0000000000	-2.1514805454	6.4371467868	62.3054074873	109.9998639095	11.3174444103	19.0793958467	0.0000000000	2.1916748899	13.5450792459	49.6813904535	103.7587008692	30.0000000000	10.2182369148	-0.0620000000	
1.0170000000	-0.5918477032	0.3072822543	0.6823848445	84.7986653238	-6.5018131638	-4.4542704316	3.1304374397	13.3912143893	-14.8921151329	0.0000000000	0.0000000000	0.0000000000	-36.1029043102	-9.9999999996	24.4430983500	0.0000000000	70.0000000000	0.0000000000	0.0000000000	-30.5711567720	10.0000000000	16.5135571751	0.0000000000	70.0000000000	0.0000000000	0.0000000000	-1.9593481245	5.6803874957	63.1142803549	109.1499074880	11.2474338544	19.9512971879	0.0000000000	1.5656263190	14.1743328655	49.3850245810	103.8727783245	30.0000000000	11.2891023291	-0.0630000000	
1.0250000000	-0.5857796349	0.3058553831	0.6826838090	84.9170659267	-6.1779160682	-4.3984598645	3.0863117023	12.9558738969	-14.9809198896	0.0000000000	0.0000000000	0.0000000000	-35.8431271892	-9.9999999996	24.2151700396	0.0000000000	70.0000000000	0.0000000000	0.0000000000	-30.9979266109	10.0000000000	17.6003357268	0.0000000000	70.0000000000	0.0000000000	0.0000000000	-1.9046520955	5.6232522455	64.1734434711	108.2618071396	11.7801994560	18.5762452510	0.0000000000	1.4604949021	14.1174366244	48.7237063879	103.7448387564	30.0000000000	12.6695066064	-0.0640000000	
1.0330000000	-0.5781747348	0.3050167810	0.6838394343	84.8378055191	-5.9520315352	-4.1379513668	3.3552404689	12.4843588912	-15.1843162004	0.0000000000	0.0000000000	0.0000000000	-35.5065200830	-9.9999999996	23.8395506992	0.0000000000	70.0000000000	0.0000000000	0.0000000000	-31.2901563362	10.0000000000	18.2705870971	0.0000000000	70.0000000000	0.0000000000	0.0000000000	-1.5615762491	5.7390688071	64.8765402606	107.5027148096	11.0930142967	18.9756582220	0.0000000000	1.1193158436	14.0228509644	47.8736496033	103.6878671539	30.0000000000	13.9410259720	-0.0650000000	
1.0420000000	-0.5709174765	0.3041806811	0.6852460847	84.8488704635	-5.5789260429	-3.9455165488	3.4913167633	11.8829871198	-15.5932499179	0.0000000000	0.0000000000	0.0000000000	-35.4549833112	-9.9999999996	23.1564903531	0.0000000000	70.0000000000	0.0000000000	0.0000000000	-31.3985232865	10.0000000000	19.1845903420	0.0000000000	70.0000000000	0.0000000000	0.0000000000	-1.5002444239	5.7291326787	65.4102247814	106.5642798886	11.3643949664	18.7147731839	0.0000000000	0.8694365129	13.9040345085	47.0771695738	103.6530458890	30.0000000000	12.7987063297	-0.0660000000	
1.0500000000	-0.5647929873	0.3036436344	0.6858970865	84.8592496906	-5.1322639744	-3.9399319255	3.6301171419	11.2444597283	-15.7012794678	0.0000000000	0.0000000000	0.0000000000	-35.3548298826	-9.9999999996	22.8962844361	0.0000000000	70.0000000000	0.0000000000	0.0000000000	-31.7414635238	10.0000000000	20.0126506315	0.0000000000	70.0000000000	0.0000000000	0.0000000000	-1.2507955688	5.9210294872	66.2030078954	105.3295573157	11.4224669608	18.7022727184	0.0000000000	0.7161306276	13.9335821893	46.4320135544	103.4726263013	30.0000000000	12.8328614255	-0.0670000000	
1.0580000000	-0.5574476868	0.3024136234	0.6866989425	84.7201675558	-4.4677109624	-3.8787264148	4.0210798333	10.6154254877	-15.9101551517	0.0000000000	0.0000000000	0.0000000000	-35.1099588004	-9.9999999996	22.3513874720	0.0000000000	70.0000000000	0.0000000000	0.0000000000	-31.5840926334	10.0000000000	21.4123756298	0.0000000000	70.0000000000	0.0000000000	0.0000000000	-1.4824023970	5.3430483129	66.9365952917	104.3497675896	11.2176232147	18.2180765918	0.0000000000	0.8066249307	14.7237427537	45.7130077424	103.2434368004	30.0000000000	13.1328852429	-0.0680000000	
1.0670000000	-0.5506373354	0.3009182928	0.6881881279	84.5359480454	-4.2161319762	-3.6845909009	4.3499823770	10.2728095455	-16.1250967238	0.0000000000	0.0000000000	0.0000000000	-34.7874679407	-9.9999999996	22.0016804642	0.0000000000	70.0000000000	0.0000000000	0.0000000000	-31.9140662393	10.0000000000	22.3057619234	0.0000000000	70.0000000000	0.0000000000	0.0000000000	-0.8156350860	5.4901545400	67.3643856567	103.1845963347	10.8665477537	16.1985601991	0.0000000000	0.1040714541	14.5997312268	45.0117661685	103.1805351607	30.0000000000	16.6485631827	-0.0690000000	
1.0750000000	-0.5439934425	0.2999092308	0.6886610969	84.5639654207	-3.8631348559	-3.6719831323	4.6803502490	9.5567400174	-16.2292240220	0.0000000000	0.0000000000	0.0000000000	-34.7317142713	-9.9999999996	22.0551827784	0.0000000000	70.0000000000	0.0000000000	0.0000000000	-31.9409855378	10.0000000000	23.3285456259	0.0000000000	70.0000000000	0.0000000000	0.0000000000	-0.5247001712	5.7109935153	68.0589331950	102.0679270394	10.8872301977	16.2643952326	0.0000000000	-0.1250384824	14.5202848151	44.4883184711	103.0507819075	30.0000000000	16.6229941543	-0.0700000000	
1.0830000000	-0.5367218381	0.2987970519	0.6895190906	84.4452389791	-3.2601864269	-3.6543162021	4.8435491128	9.2750636445	-16.3863443475	0.0000000000	0.0000000000	0.0000000000	-34.4660709868	-9.9999999996	20.8542990738	0.0000000000	70.0000000000	0.0000000000	0.0000000000	-32.2406606284	10.0000000000	24.6047315435	0.0000000000	70.0000000000	0.0000000000	0.0000000000	-0.4975575787	5.6308052063	68.6323652506	100.9503876401	10.8488460224	16.3854112537	0.0000000000	-0.1090986260	15.1086166679	43.7416338532	102.8652265204	30.0000000000	16.6333714786	-0.0710000000	
1.0920000000	-0.5296014900	0.2961121726	0.6905979503	84.1662476974	-3.3141014390	-3.3971550972	5.1993940323	9.1734448065	-16.6010786255	0.0000000000	0.0000000000	0.0000000000	-34.2585666670	-9.9999999996	20.4559488575	0.0000000000	70.0000000000	0.0000000000	0.0000000000	-32.5069650226	10.0000000000	25.8043809429	0.0000000000	70.0000000000	0.0000000000	0.0000000000	0.4140329898	5.7031038016	68.9555112749	99.7994703458	10.6508739964	15.2006164048	0.0000000000	-1.1211187856	14.9717295684	42.7496461316	102.6942041473	30.0000000000	16.2746070815	-0.0720000000	
1.1000000000	-0.5219042321	0.2949502784	0.6908586109	83.9009029541	-2.7566120445	-3.4461579769	5.8147425024	8.4339634390	-16.5578544016	0.0000000000	0.0000000000	0.0000000000	-33.9746122857	-9.9999999996	20.5200882753	0.0000000000	70.0000000000	0.0000000000	0.0000000000	-32.5299859471	10.0000000000	26.5304372061	0.0000000000	70.0000000000	0.0000000000	0.0000000000	0.6940314587	5.4525157002	69.5301119307	98.7614070192	11.3934489907	15.8111584597	0.0000000000	-1.5929817927	15.3301895320	42.3394215346	102.5893853252	30.0000000000	18.3238308554	-0.0730000000	
1.1080000000	-0.5144853687	0.2940930791	0.6916199495	83.7935972138	-2.1525367910	-3.6016161950	6.3158842300	7.6480238182	-16.3959479954	0.0000000000	0.0000000000	0.0000000000	-33.6892390907	-9.9999999996	20.2525317032	0.0000000000	70.0000000000	0.0000000000	0.0000000000	-32.6211704107	10.0000000000	27.1801711646	0.0000000000	70.0000000000	0.0000000000	0.0000000000	0.5818934756	5.3342384678	70.0554681859	97.4544681605	10.9212841306	15.9191323982	0.0000000000	-1.6263306362	15.6871354706	41.8499344610	102.4433462867	30.0000000000	18.2295034528	-0.0740000000	
1.1170000000	-0.5068793344	0.2930786284	0.6925287247	83.9903727940	-1.7192996268	-3.3257485989	6.2740656636	7.3851064212	-16.9445289333	0.0000000000	0.0000000000	0.0000000000	-33.7766293205	-9.9999999996	19.5803913418	0.0000000000	70.0000000000	0.0000000000	0.0000000000	-32.6536949390	10.0000000000	28.7044465912	0.0000000000	70.0000000000	0.0000000000	0.0000000000	0.5697908337	5.5608874864	70.2080799583	96.6531965372	10.4760699490	15.6806844017	0.0000000000	-1.6028541207	15.7560170484	41.0130345903	102.2440290775	30.0000000000	18.3530163390	-0.0750000000	
